<?xml version="1.0" encoding="UTF-8"?><svg id="b" xmlns="http://www.w3.org/2000/svg" width="297.28" height="719.78" viewBox="0 0 297.28 719.78"><defs><style>.d{fill:#fff;}</style></defs><g id="c"><path class="d" d="M83.73,410.28v137c0,.15,1.03,2.43,1.65,2.57,44.79-13.11,89.51-26.8,133.46-42.47l.86-74.14c17.13-43.95,41.94-85.44,63.21-127.79,2.36-4.69,14.38-27.26,14.38-30.18-.01-10.86-24.69-7.15-32.1-7.46-2.37-.1-4.55-.98-6.92-1.08-12.3-.53-24.71-.28-37.01-.99l-2.62-1.38-.38-57.58c6.93-9.36,44.08-25.03,46.27-34.73l.23-103.81-3.99-8.01c-31.66-17.22-62.61-37.84-94.37-54.63-13.1-6.93-12.81-7.63-26.34-1-31.69,15.54-62.38,37.77-94.06,53.83-6.73,5.5-3.83,12.97-4.2,19.84-1.61,30.06-1.39,60.38-.63,90.56,2.86,13.93,33.35,26.27,44.47,35.53,2.23,1.86,4.71,3.49,4.09,6.81-5.39,12.47-11.29,24.71-17.14,36.96-22.07,46.18-48.75,93.61-68.72,140.28-3.05,7.12-8.36,16.61,3.45,18.27,16.46,2.3,41.15.18,58.95,1.05,4.8.23,9.83,1.84,14.96,1.04l2.5,1.5ZM84.82,595.69l131.63-40.69c6.52-1.35,4.9-23.03,2.32-24.77-2.11-1.42-10.16,1.28-13.04,2.05-39.83,10.68-78.97,25.19-118.73,36.27-5.44,1.2-3.35,26.33-2.18,27.14ZM83.73,617.28v23c0,.55,1.7,1.59,2.53,1.55,44.56-13.25,89.23-27.22,133.21-42.31,1.97-3.82,1.1-22.39-2.4-23.58l-4.72-.06c-35.13,10.37-70.58,20.25-105.38,31.64-3.99,1.31-22.31,6.55-23.23,9.77ZM219.73,619.78c-2.4-.18-4.68,0-7.05.45-15.69,3.04-38.87,13.6-55.18,18.82-22.89,7.32-45.98,14.1-69,21-5.84,2.28.37,6.56,3.22,9.25,17.33,16.36,37.4,30.73,54.52,47.48,6.29,4.43,8.56,3.75,14.41-.58,10.94-8.1,22.02-21.33,32.07-30.93,9-8.59,19.53-15.91,27.01-25.99v-39.5Z"/><path d="M82.72,409.67c-23.07-4.46-52.89-.02-75.4-2.99-11.81-1.65-6.5-11.14-3.45-18.27,19.97-46.67,46.64-94.1,68.72-140.28,5.83-12.35,11.97-24.63,17.19-37.25-3.98-14.35-45.43-24.6-48.56-41.84-.89-30.23-1-60.64.58-90.77.36-6.8-2.48-14.2,4-19.68,31.7-16.22,62.51-38.37,94.26-53.99,13.53-6.63,13.25-5.93,26.34,1,31.57,16.7,62.34,37.17,93.8,54.33.37.2.67.51.85.89,0,0,3.48,7,3.48,7,.9.63-.42,103.15-.01,103.96-2.12,10.18-37.69,24.75-45.76,34.38-1.27,1.8.2,55.08-.14,56.98,0,5.94,38.1,1.46,46.56,4.68,43.7-2.57,33.99,5.89,17.72,37.64-21.2,42.49-46.47,83.98-63.22,128.17,0,0-.84,72.31-.84,72.31-40.09,16.87-92.35,33.79-134.59,42.53-2.51-2.6,1.86-136.72-1.54-138.79ZM202.74,146.7c.14-2.11-2.58-3.04-3.77-1.3-41.98,70.44-77.28,142.91-117.1,214.36-2.14,7.81,6.56,7.65,12.32,8.06,9.26,2.38,47.59-4.27,48.45,6.09.36.78-35.77,131.82-35.8,132.66-.57,1.94,2.07,3.57,3.49,1.96,0,0,3.07-3.25,3.07-3.25.24.16,109.74-183.93,109.95-183.98,1.52-3.66-.43-7.85-4.43-8.51-19.73-1.12-40.9.91-60.25-2.46-6.28-1.89-3.38-7.77-2.21-12.31,13.01-50.28,34.23-100.69,46.28-151.31Z"/><path d="M219.73,619.78v39.5c-7.49,10.08-18.02,17.4-27.01,25.99-10.06,9.6-21.13,22.83-32.07,30.93-5.85,4.33-8.12,5.01-14.41.58-17.11-16.75-37.19-31.13-54.52-47.48-2.85-2.69-9.06-6.97-3.22-9.25,23.02-6.9,46.11-13.68,69-21,16.31-5.21,39.49-15.77,55.18-18.82,2.37-.46,4.65-.63,7.05-.45Z"/><path d="M83.73,617.28c.93-3.21,19.24-8.46,23.23-9.77,34.8-11.39,70.25-21.27,105.38-31.64l4.72.06c3.51,1.19,4.38,19.76,2.4,23.58-43.98,15.09-88.65,29.06-133.21,42.31-.83.04-2.53-1-2.53-1.55v-23Z"/><path d="M84.82,595.69c-1.17-.81-3.26-25.93,2.18-27.14,39.75-11.09,78.89-25.6,118.73-36.27,2.88-.77,10.93-3.47,13.04-2.05,2.58,1.74,4.2,23.42-2.32,24.77l-131.63,40.69Z"/><path class="d" d="M201.23,142.8c3.03,2.41.77,6.84,0,9.97-12.1,48.41-32.3,97.04-44.75,145.25-1.17,4.55-4.07,10.42,2.21,12.31,2.13.64,8.91,1.26,11.56,1.44,15.86,1.06,32.98.27,48.96,1.04,3.84,1.04,5.4,4.49,4.31,8.24l-109.95,184.07-5.34,5.64-1.58-3.47,36.07-132.92c-.42-3.11-2.44-5.17-5.55-5.53-14.14-1.29-28.92-.03-42.98-1.02-5.82-.41-14.64-.25-12.24-8.31,36.51-65.72,70.36-133.11,107.61-198.41,1.42-2.49,10.32-18.3,11.67-18.31Z"/></g></svg>